# xmcd
#
# Track frame offsets:
#	150
#	11281
#	22825
#	42900
#	52501
#	67098
#	76293
#	86178
#	98834
#	111863
#	119751
#	133731
#	145458
#
# Disc length: 2090 seconds
#
# Revision: 1
# Processed by: cddbd v1.5.2PL0 Copyright (c) Steve Scherf et al.
# Submitted via: audiograbber 1.83.01
#
DISCID=aa08280d
DTITLE=Die Alpengeier - Keine Feier ohne..
DYEAR=2006
DGENRE=Volksmusik
TTITLE0=Freunde wir spielen heut Polka
TTITLE1=Alpengeier Polka
TTITLE2=Wie die Zeit vergeht
TTITLE3=Rheinische Grüsse
TTITLE4=Auf zum Boarischen
TTITLE5=Verliebt in meine Alpenlady
TTITLE6=Mit Schwung
TTITLE7=Heirate nie
TTITLE8=Erinnerung an Slowenien
TTITLE9=Lintforter Polka
TTITLE10=Du schönes Altenmarkt
TTITLE11=Mit Pfiff durch Südtirol
TTITLE12=Keine Feier ohne...
EXTD=Musikanten WM Saalbach 2006
EXTT0=
EXTT1=
EXTT2=
EXTT3=
EXTT4=
EXTT5=
EXTT6=
EXTT7=
EXTT8=
EXTT9=
EXTT10=
EXTT11=
EXTT12=
PLAYORDER=
